<svg width="57" height="57" viewBox="0 0 57 57" fill="none" xmlns="http://www.w3.org/2000/svg">
<g id="Mask group">
<mask id="mask0_206_31" style="mask-type:luminance" maskUnits="userSpaceOnUse" x="0" y="0" width="57" height="57">
<g id="Group">
<g id="Group_2">
<path id="Vector" d="M28.5 55C31.9807 55.0045 35.4279 54.3211 38.6437 52.989C41.8594 51.657 44.7802 49.7026 47.2381 47.2381C49.7026 44.7802 51.657 41.8594 52.989 38.6437C54.3211 35.4279 55.0045 31.9807 55 28.5C55.0044 25.0193 54.321 21.5721 52.9889 18.3564C51.6569 15.1407 49.7025 12.2199 47.2381 9.76187C44.7802 7.2974 41.8594 5.34299 38.6437 4.01095C35.4279 2.67891 31.9807 1.99551 28.5 2.00002C25.0193 1.99558 21.5721 2.67902 18.3564 4.01106C15.1407 5.34309 12.2199 7.29746 9.76187 9.76187C7.29746 12.2199 5.34309 15.1407 4.01106 18.3564C2.67902 21.5721 1.99558 25.0193 2.00002 28.5C1.99551 31.9807 2.67891 35.4279 4.01095 38.6437C5.34299 41.8594 7.2974 44.7802 9.76187 47.2381C12.2199 49.7025 15.1407 51.6569 18.3564 52.9889C21.5721 54.321 25.0193 55.0044 28.5 55Z" fill="white" stroke="white" stroke-width="4" stroke-linejoin="round"/>
<path id="Vector_2" d="M17.9006 28.5013L25.8506 36.4513L41.7506 20.5513" stroke="black" stroke-width="4" stroke-linecap="round" stroke-linejoin="round"/>
</g>
</g>
</mask>
<g mask="url(#mask0_206_31)">
<path id="Vector_3" d="M-3.29968 -3.30127H60.3003V60.2987H-3.29968V-3.30127Z" fill="#339837"/>
</g>
</g>
</svg>
