<svg width="40" height="40" viewBox="0 0 40 40" fill="none" xmlns="http://www.w3.org/2000/svg">
<circle cx="20" cy="20" r="19" fill="#F8C300" stroke="#3E3E3C" stroke-width="2"/>
<path d="M22.034 9.74101C22.068 9.6141 22.1266 9.49512 22.2065 9.39087C22.2865 9.28663 22.3862 9.19915 22.4999 9.13345C22.6137 9.06774 22.7393 9.0251 22.8695 9.00795C22.9998 8.9908 23.1321 8.99949 23.259 9.03351C25.1129 9.5172 26.8043 10.4863 28.1591 11.8411C29.5138 13.1958 30.483 14.8872 30.9667 16.7411C31.0007 16.868 31.0094 17.0003 30.9922 17.1306C30.9751 17.2608 30.9324 17.3864 30.8667 17.5002C30.801 17.6139 30.7136 17.7136 30.6093 17.7936C30.5051 17.8735 30.3861 17.9321 30.2592 17.9661C30.1747 17.9883 30.0877 17.9996 30.0004 17.9998C29.78 17.9998 29.5658 17.927 29.3911 17.7928C29.2164 17.6585 29.0909 17.4703 29.0341 17.2573C28.6396 15.744 27.8487 14.3632 26.7428 13.2573C25.6369 12.1515 24.2562 11.3605 22.7428 10.966C22.6158 10.9322 22.4966 10.8737 22.3923 10.7938C22.2879 10.7139 22.2003 10.6142 22.1344 10.5005C22.0686 10.3867 22.0258 10.261 22.0086 10.1307C21.9914 10.0004 22 9.86799 22.034 9.74101ZM21.7428 14.9661C23.4665 15.4261 24.5741 16.5336 25.0341 18.2573C25.0908 18.4703 25.2163 18.6585 25.391 18.7928C25.5658 18.9271 25.78 18.9998 26.0003 18.9999C26.0877 18.9996 26.1746 18.9883 26.2591 18.9661C26.386 18.9322 26.505 18.8735 26.6092 18.7936C26.7135 18.7137 26.801 18.614 26.8667 18.5002C26.9324 18.3864 26.975 18.2608 26.9922 18.1306C27.0093 18.0003 27.0006 17.868 26.9666 17.7411C26.3266 15.3461 24.6541 13.6736 22.259 13.0335C22.1321 12.9996 21.9998 12.9911 21.8696 13.0083C21.7394 13.0256 21.6139 13.0683 21.5002 13.134C21.3865 13.1998 21.2868 13.2873 21.207 13.3916C21.1271 13.4958 21.0685 13.6148 21.0346 13.7417C21.0007 13.8686 20.9922 14.0009 21.0094 14.1311C21.0266 14.2613 21.0694 14.3868 21.1351 14.5005C21.2009 14.6142 21.2884 14.7139 21.3926 14.7937C21.4969 14.8736 21.6159 14.9322 21.7428 14.9661ZM31.9854 26.8849C31.7626 28.5787 30.9307 30.1335 29.6453 31.2588C28.3598 32.3841 26.7087 33.003 25.0003 33C15.0751 33 7.00001 24.9249 7.00001 14.9998C6.99695 13.2914 7.61588 11.6403 8.74121 10.3549C9.86653 9.06947 11.4213 8.23763 13.1151 8.01475C13.5434 7.96245 13.9772 8.05007 14.3516 8.26455C14.726 8.47902 15.0211 8.80884 15.1927 9.20476L17.8327 15.0986V15.1136C17.9641 15.4166 18.0183 15.7475 17.9906 16.0767C17.9629 16.4058 17.8541 16.723 17.6739 16.9998C17.6514 17.0336 17.6277 17.0648 17.6027 17.0961L15.0001 20.1811C15.9364 22.0836 17.9264 24.0562 19.854 24.9949L22.8965 22.4061C22.9264 22.381 22.9577 22.3576 22.9903 22.3361C23.2669 22.1516 23.5852 22.039 23.9163 22.0085C24.2474 21.9779 24.5809 22.0304 24.8866 22.1611L24.9028 22.1686L30.7917 24.8074C31.1883 24.9784 31.5189 25.2731 31.7341 25.6476C31.9493 26.0221 32.0375 26.4562 31.9854 26.8849ZM30.0004 26.6349H29.9867L24.1116 24.0037L21.0678 26.5924C21.0382 26.6174 21.0073 26.6408 20.9753 26.6624C20.6874 26.8544 20.3547 26.9685 20.0097 26.9935C19.6646 27.0185 19.3189 26.9535 19.0065 26.8049C16.6652 25.6737 14.3314 23.3574 13.1989 21.0411C13.0489 20.7309 12.9816 20.3873 13.0035 20.0434C13.0254 19.6996 13.1358 19.3673 13.3239 19.0786C13.3451 19.0447 13.3689 19.0125 13.3951 18.9824L16.0002 15.8936L13.3751 10.0185C13.3746 10.0135 13.3746 10.0085 13.3751 10.0035C12.1629 10.1616 11.0499 10.7562 10.2446 11.6759C9.43924 12.5956 8.99677 13.7774 9.00005 14.9998C9.00468 19.2419 10.6919 23.3089 13.6915 26.3085C16.6912 29.3081 20.7582 30.9953 25.0003 31C26.222 31.0042 27.4035 30.5632 28.3237 29.7597C29.2439 28.9561 29.84 27.8448 30.0004 26.6337V26.6349Z" fill="#3E3E3C"/>
</svg>
