<svg width="45" height="45" viewBox="0 0 45 45" fill="none" xmlns="http://www.w3.org/2000/svg">
<g id="INSTAGRAM">
<path id="RING" d="M22.5 12.1208C16.7678 12.1208 12.1212 16.7675 12.1212 22.4997C12.1212 28.2319 16.7678 32.8789 22.5 32.8789C28.2322 32.8789 32.8792 28.2319 32.8792 22.4997C32.8792 16.7675 28.2322 12.1208 22.5 12.1208ZM22.5 29.2377C18.7794 29.2377 15.7623 26.2217 15.7623 22.5C15.7623 18.7784 18.7794 15.7623 22.5 15.7623C26.2206 15.7623 29.2377 18.7784 29.2377 22.5C29.2377 26.2217 26.2206 29.2377 22.5 29.2377Z" fill="url(#paint0_linear_105_574)"/>
<path id="CIRCLE" d="M33.2905 14.1353C34.6302 14.1353 35.7163 13.0492 35.7163 11.7095C35.7163 10.3698 34.6302 9.28369 33.2905 9.28369C31.9508 9.28369 30.8647 10.3698 30.8647 11.7095C30.8647 13.0492 31.9508 14.1353 33.2905 14.1353Z" fill="url(#paint1_linear_105_574)"/>
<g id="FRAME">
<mask id="mask0_105_574" style="mask-type:luminance" maskUnits="userSpaceOnUse" x="2" y="2" width="41" height="41">
<g id="SHAPE FRAME - MASK">
<path id="4" d="M42.7148 22.4999C42.7148 17.0124 42.673 16.2853 42.5707 14.1302C42.4684 11.9748 42.1253 10.5116 41.6222 9.2263C40.5478 6.48341 38.449 4.3888 35.7008 3.32778C34.4141 2.83103 32.9453 2.49106 30.7941 2.39825C28.6429 2.30544 27.9889 2.2854 22.5 2.2854C17.0111 2.2854 16.3571 2.30544 14.2059 2.39825C12.0547 2.49106 10.5859 2.83103 9.29918 3.32778C6.55102 4.3888 4.45219 6.48341 3.37781 9.2263C2.87473 10.5116 2.53125 11.9748 2.42895 14.1302C2.32664 16.2857 2.28481 17.0124 2.28481 22.4999C2.28481 27.9874 2.32664 28.7145 2.42895 30.8695C2.53125 33.025 2.87438 34.4882 3.37746 35.7735C4.45184 38.5164 6.55066 40.611 9.29883 41.672C10.5855 42.1688 12.0544 42.5087 14.2056 42.6015C16.3568 42.6943 17.0107 42.7144 22.4996 42.7144C27.9886 42.7144 28.6425 42.6943 30.7937 42.6015C32.9449 42.5087 34.4137 42.1688 35.7005 41.672C38.4486 40.611 40.5475 38.5164 41.6218 35.7735C42.1249 34.4882 42.4684 33.025 42.5707 30.8695C42.673 28.7141 42.7148 27.9874 42.7148 22.4999ZM22.5 5.93708C27.8933 5.93708 28.5029 5.94587 30.6352 6.03939C32.6039 6.12552 33.6755 6.45177 34.3874 6.72669C36.147 7.40591 37.5166 8.72954 38.231 10.5563C38.5088 11.2668 38.8399 12.3348 38.9331 14.3057C39.034 16.4372 39.0674 17.0971 39.0674 22.4999C39.0674 27.9027 39.0343 28.5629 38.9331 30.6941C38.8396 32.665 38.5088 33.733 38.231 34.4435C37.5163 36.2713 36.1459 37.5939 34.3874 38.2731C33.6755 38.548 32.6039 38.8743 30.6352 38.9604C28.5029 39.0539 27.8933 39.0627 22.5 39.0627C17.1067 39.0627 16.4971 39.0539 14.3648 38.9604C12.3961 38.8743 11.3245 38.548 10.6126 38.2731C8.85305 37.5939 7.48336 36.2702 6.76898 34.4435C6.49125 33.733 6.16008 32.665 6.06691 30.6941C5.96602 28.5626 5.93262 27.9027 5.93262 22.4999C5.93262 17.0971 5.96566 16.4368 6.06691 14.3057C6.16043 12.3348 6.49125 11.2668 6.76898 10.5563C7.48371 8.72849 8.8541 7.40591 10.6126 6.72669C11.3245 6.45177 12.3961 6.12552 14.3648 6.03939C16.4971 5.94587 17.1067 5.93708 22.5 5.93708Z" fill="white"/>
</g>
</mask>
<g mask="url(#mask0_105_574)">
<path id="FIRE" d="M42.7147 2.28516H2.28506V42.7148H42.7147V2.28516Z" fill="url(#paint2_radial_105_574)"/>
<path id="NIGHT" d="M42.7147 2.28516H2.28506V42.7148H42.7147V2.28516Z" fill="url(#paint3_radial_105_574)"/>
<path id="PINK" d="M42.7147 2.28516H2.28506V42.7148H42.7147V2.28516Z" fill="url(#paint4_radial_105_574)"/>
<path id="SHMINK" d="M42.7147 2.28516H2.28506V42.7148H42.7147V2.28516Z" fill="url(#paint5_radial_105_574)"/>
<path id="BLINK" d="M42.7147 2.28516H2.28506V42.7148H42.7147V2.28516Z" fill="url(#paint6_radial_105_574)"/>
</g>
</g>
</g>
<defs>
<linearGradient id="paint0_linear_105_574" x1="15.8242" y1="32.9885" x2="24.8502" y2="14.9365" gradientUnits="userSpaceOnUse">
<stop stop-color="#F28722"/>
<stop offset="0.314" stop-color="#EB4949"/>
<stop offset="0.546" stop-color="#EA3B72"/>
<stop offset="1" stop-color="#EA33B6"/>
</linearGradient>
<linearGradient id="paint1_linear_105_574" x1="31.2793" y1="9.79732" x2="34.4431" y2="12.9612" gradientUnits="userSpaceOnUse">
<stop stop-color="#E933C4"/>
<stop offset="0.418" stop-color="#EA33B6"/>
<stop offset="1" stop-color="#EA33A6"/>
</linearGradient>
<radialGradient id="paint2_radial_105_574" cx="0" cy="0" r="1" gradientUnits="userSpaceOnUse" gradientTransform="translate(16.5961 48.273) scale(50.3437)">
<stop stop-color="#FFE54F"/>
<stop offset="0.208" stop-color="#F7C93E"/>
<stop offset="0.209" stop-color="#F6C83D"/>
<stop offset="0.418" stop-color="#EB5E2E"/>
<stop offset="0.796" stop-color="#F50F91"/>
<stop offset="1" stop-color="#FF4FCF"/>
</radialGradient>
<radialGradient id="paint3_radial_105_574" cx="0" cy="0" r="1" gradientUnits="userSpaceOnUse" gradientTransform="translate(-0.250809 5.81909) rotate(-11.494) scale(57.2977 22.1169)">
<stop stop-color="#7035F0"/>
<stop offset="0.168" stop-color="#6B1EFA"/>
<stop offset="0.228" stop-color="#7420F6" stop-opacity="0.968"/>
<stop offset="0.332" stop-color="#8D25EC" stop-opacity="0.882"/>
<stop offset="0.465" stop-color="#B52EDC" stop-opacity="0.743"/>
<stop offset="0.592" stop-color="#E138CB" stop-opacity="0.592"/>
<stop offset="0.8" stop-color="#E51B7D" stop-opacity="0.29"/>
<stop offset="1" stop-color="#FD00A4" stop-opacity="0"/>
</radialGradient>
<radialGradient id="paint4_radial_105_574" cx="0" cy="0" r="1" gradientUnits="userSpaceOnUse" gradientTransform="translate(1.53417 16.8443) rotate(3.951) scale(7.72137 8.79464)">
<stop stop-color="#F23DD1" stop-opacity="0.8"/>
<stop offset="0.262" stop-color="#E33DE0" stop-opacity="0.53"/>
<stop offset="0.512" stop-color="#D73DED" stop-opacity="0.302"/>
<stop offset="0.726" stop-color="#CF3DF7" stop-opacity="0.138"/>
<stop offset="0.896" stop-color="#C93DFC" stop-opacity="0.037"/>
<stop offset="1" stop-color="#C83DFF" stop-opacity="0"/>
</radialGradient>
<radialGradient id="paint5_radial_105_574" cx="0" cy="0" r="1" gradientUnits="userSpaceOnUse" gradientTransform="translate(35.4726 -2.28498) scale(15.9462 15.7708)">
<stop stop-color="#BD3DBA"/>
<stop offset="1" stop-color="#BF3BBF" stop-opacity="0"/>
</radialGradient>
<radialGradient id="paint6_radial_105_574" cx="0" cy="0" r="1" gradientUnits="userSpaceOnUse" gradientTransform="translate(14.267 1.25977) rotate(-9.37) scale(45.3059 7.24894)">
<stop stop-color="#4D1CDE"/>
<stop offset="0.571" stop-color="#5D30E3" stop-opacity="0.4"/>
<stop offset="1" stop-color="#A710DE" stop-opacity="0"/>
</radialGradient>
</defs>
</svg>
