<svg width="45" height="45" viewBox="0 0 45 45" fill="none" xmlns="http://www.w3.org/2000/svg">
<g id="TELEGRAM">
<path id="CIRCLE" d="M22.5 43.2422C33.9556 43.2422 43.2422 33.9556 43.2422 22.5C43.2422 11.0444 33.9556 1.75781 22.5 1.75781C11.0444 1.75781 1.75781 11.0444 1.75781 22.5C1.75781 33.9556 11.0444 43.2422 22.5 43.2422Z" fill="url(#paint0_linear_105_567)"/>
<path id="PAPER PLANE" fill-rule="evenodd" clip-rule="evenodd" d="M11.147 22.2809C17.2357 19.7448 21.2259 17.9096 23.2432 17.0704C29.0036 14.6745 30.2006 14.2583 30.9807 14.2446C31.1534 14.2414 31.5703 14.279 31.8438 14.5416C32.1747 14.8591 32.1536 15.4529 32.1142 15.8639C31.802 19.1436 30.4513 27.103 29.7643 30.7764C29.4736 32.3307 28.9009 32.8521 28.3468 32.903C27.1424 33.0138 26.2276 32.1071 25.0611 31.3421C23.2355 30.1454 22.2043 29.4004 20.4321 28.2329C18.3843 26.8832 19.7118 26.1418 20.8789 24.9292C21.1845 24.6121 26.4916 19.7848 26.5943 19.3468C26.6073 19.2919 26.6189 19.088 26.4976 18.9801C26.3763 18.8722 26.1974 18.9091 26.068 18.9386C25.8848 18.9801 22.9532 20.8852 17.3187 24.7215C16.4886 25.2868 15.7412 25.567 15.0694 25.5522C14.3286 25.536 12.9041 25.1335 11.8452 24.7893C10.5462 24.3671 9.51399 24.1439 9.60363 23.4267C9.65039 23.0533 10.1714 22.687 11.1466 22.2806L11.147 22.2809Z" fill="white"/>
</g>
<defs>
<linearGradient id="paint0_linear_105_567" x1="24.2578" y1="1.75781" x2="24.2578" y2="42.8906" gradientUnits="userSpaceOnUse">
<stop stop-color="#2AABEE"/>
<stop offset="1" stop-color="#229ED9"/>
</linearGradient>
</defs>
</svg>
