<svg width="45" height="45" viewBox="0 0 45 45" fill="none" xmlns="http://www.w3.org/2000/svg">
<g id="FACEBOOK">
<path id="BASE" d="M42.8906 22.3242C42.8906 10.9656 33.6829 1.75781 22.3242 1.75781C10.9656 1.75781 1.75781 10.9656 1.75781 22.3242C1.75781 32.5895 9.27879 41.098 19.1106 42.6407V28.2691H13.8885V22.3242H19.1106V17.7933C19.1106 12.6387 22.1811 9.79172 26.8787 9.79172C29.1291 9.79172 31.4824 10.1936 31.4824 10.1936V15.2546H28.8889C26.3341 15.2546 25.5375 16.8398 25.5375 18.4665V22.3246H31.2416L30.3296 28.2695H25.5375V42.641C35.3696 41.0984 42.8903 32.5898 42.8903 22.3246L42.8906 22.3242Z" fill="#1877F2"/>
<path id="F" d="M30.33 28.269L31.2419 22.3241H25.5378V18.4661C25.5378 16.8397 26.3345 15.2542 28.8893 15.2542H31.4828V10.1931C31.4828 10.1931 29.1291 9.79126 26.8791 9.79126C22.1811 9.79126 19.1109 12.6386 19.1109 17.7928V22.3238H13.8888V28.2687H19.1109V42.6402C20.1579 42.8044 21.2312 42.8902 22.3246 42.8902C23.4179 42.8902 24.4909 42.8044 25.5382 42.6402V28.2687H30.3303L30.33 28.269Z" fill="white"/>
</g>
</svg>
